# xmcd
#
# Track frame offsets:
# 150
# 17903
# 34157
# 51800
# 70699
# 84962
# 102113
# 119548
# 134866
# 155777
# 171439
# 190064
#
# Disc length: 2749 seconds
#
# Revision: 0
# Processed by: cddbd v1.5.2PL0 Copyright (c) Steve Scherf et al.
# Submitted via: Axialis_AX_CDPlayer 2.6
#
DISCID=a70abb0c
DTITLE=Seal - Soul
DYEAR=1900
DGENRE=
TTITLE0=A change is gonna come
TTITLE1=I can t stand the rain
TTITLE2=It s a man s man s man s world
TTITLE3=Here i am (come and take me)
TTITLE4=I ve been loving you too long
TTITLE5=It s alright
TTITLE6=If you don t know me by now
TTITLE7=Knock on wood
TTITLE8=I m still in love with you
TTITLE9=Free
TTITLE10=Stand by me
TTITLE11=People get ready
EXTD=
EXTT0=
EXTT1=
EXTT2=
EXTT3=
EXTT4=
EXTT5=
EXTT6=
EXTT7=
EXTT8=
EXTT9=
EXTT10=
EXTT11=
PLAYORDER=
